<svg width="24" height="24" viewBox="0 0 24 24" fill="none" xmlns="http://www.w3.org/2000/svg">
<path fill-rule="evenodd" clip-rule="evenodd" d="M7 2H17C19.7614 2 22 4.23858 22 7V17C22 19.7614 19.7614 22 17 22H7C4.23858 22 2 19.7614 2 17V7C2 4.23858 4.23858 2 7 2ZM16.5 6.49996C16.5 5.94767 16.9477 5.49996 17.5 5.49996H17.51C18.0623 5.49996 18.51 5.94767 18.51 6.49996C18.51 7.05224 18.0623 7.49996 17.51 7.49996H17.5C16.9477 7.49996 16.5 7.05224 16.5 6.49996ZM16 11.37C16.1234 12.2022 15.9812 13.0522 15.5937 13.799C15.2062 14.5458 14.5931 15.1514 13.8416 15.5296C13.0901 15.9079 12.2384 16.0396 11.4077 15.9059C10.5771 15.7722 9.80971 15.38 9.21479 14.7851C8.61987 14.1902 8.22768 13.4228 8.09402 12.5922C7.96035 11.7615 8.09202 10.9099 8.47028 10.1583C8.84854 9.40682 9.45414 8.79371 10.2009 8.40621C10.9477 8.01871 11.7977 7.87656 12.63 7.99997C13.4789 8.12585 14.2648 8.52143 14.8716 9.12827C15.4785 9.73512 15.8741 10.521 16 11.37Z" fill="#535353"/>
</svg>
